<svg width="16.500000" height="16.500000" viewBox="0 0 16.5 16.5" fill="none" xmlns="http://www.w3.org/2000/svg" xmlns:xlink="http://www.w3.org/1999/xlink">
	<desc>
			Created with Pixso.
	</desc>
	<defs/>
	<path id="Vector" d="M16.5 8.25C16.5 8.43 16.42 8.6 16.29 8.73C16.16 8.86 15.99 8.93 15.81 8.93L8.93 8.93L8.93 15.81C8.93 15.99 8.86 16.16 8.73 16.29C8.6 16.42 8.43 16.5 8.25 16.5C8.06 16.5 7.89 16.42 7.76 16.29C7.63 16.16 7.56 15.99 7.56 15.81L7.56 8.93L0.68 8.93C0.5 8.93 0.33 8.86 0.2 8.73C0.07 8.6 0 8.43 0 8.25C0 8.06 0.07 7.89 0.2 7.76C0.33 7.63 0.5 7.56 0.68 7.56L7.56 7.56L7.56 0.68C7.56 0.5 7.63 0.33 7.76 0.2C7.89 0.07 8.06 0 8.25 0C8.43 0 8.6 0.07 8.73 0.2C8.86 0.33 8.93 0.5 8.93 0.68L8.93 7.56L15.81 7.56C15.99 7.56 16.16 7.63 16.29 7.76C16.42 7.89 16.5 8.06 16.5 8.25Z" fill="#FFFFFF" fill-opacity="1.000000" fill-rule="nonzero"/>
</svg>
